<?xml version="1.0" standalone="no"?>
<!DOCTYPE svg PUBLIC "-//W3C//DTD SVG 20010904//EN"
 "http://www.w3.org/TR/2001/REC-SVG-20010904/DTD/svg10.dtd">
<svg version="1.0" xmlns="http://www.w3.org/2000/svg"
 width="141.000000pt" height="132.000000pt" viewBox="0 0 141.000000 132.000000"
 preserveAspectRatio="xMidYMid meet">
<metadata>
Created by potrace 1.16, written by Peter Selinger 2001-2019
</metadata>
<g transform="translate(0.000000,132.000000) scale(0.100000,-0.100000)"
fill="#000000" stroke="none">
<path d="M575 726 c-60 -92 -81 -141 -91 -214 -8 -61 11 -162 42 -232 31 -69
115 -212 121 -207 2 3 -14 41 -37 86 -45 89 -80 211 -80 277 0 94 59 267 96
281 23 9 109 -36 166 -86 75 -66 105 -140 117 -288 6 -67 12 -150 13 -185 1
-35 4 10 7 99 5 143 8 165 27 190 37 49 100 73 205 80 52 3 101 9 109 14 12 7
11 8 -5 9 -11 0 -82 16 -158 35 -139 35 -275 82 -399 137 -58 26 -66 33 -58
49 14 26 12 39 -5 39 -9 0 -40 -38 -70 -84z"/>
</g>
</svg>
